<?xml version="1.0" encoding="UTF-8" standalone="no"?>
<svg
   xmlns:dc="http://purl.org/dc/elements/1.1/"
   xmlns:cc="http://creativecommons.org/ns#"
   xmlns:rdf="http://www.w3.org/1999/02/22-rdf-syntax-ns#"
   xmlns:svg="http://www.w3.org/2000/svg"
   xmlns="http://www.w3.org/2000/svg"
   viewBox="0 0 400 400"
   height="400"
   width="400"
   id="svg2"
   version="1.1">
  <metadata
     id="metadata8">
    <rdf:RDF>
      <cc:Work
         rdf:about="">
        <dc:format>image/svg+xml</dc:format>
        <dc:type
           rdf:resource="http://purl.org/dc/dcmitype/StillImage" />
        <dc:title></dc:title>
      </cc:Work>
    </rdf:RDF>
  </metadata>
  <defs
     id="defs6" />
  <rect
     style="fill:#f9f9fa;fill-opacity:1;stroke:none;stroke-width:1.02386355"
     id="rect4482"
     width="400"
     height="400"
     x="0"
     y="5.5067062e-14"
     rx="27.118645"
     ry="27.118645" />
  <path
     id="path4487"
     d="m 170.92654,349.40446 c -5.36058,-1.82912 -10.81926,-4.90021 -11.72801,-6.59821 -0.78071,-1.45875 7.14145,-39.16161 30.60482,-145.65333 17.412,-79.02678 32.08785,-144.411925 32.613,-145.300285 1.46928,-2.485476 4.65015,-2.471436 11.39007,0.05028 4.11723,1.540452 6.46968,3.105948 7.08016,4.711656 0.65986,1.735548 -7.89715,42.32581 -30.75151,145.870219 -17.41617,78.90604 -32.16854,144.40497 -32.78305,145.55319 -1.09064,2.03788 -3.16499,2.47904 -6.42548,1.36648 z m -42.66347,-41.02123 c -1.59035,-1.04262 -78.991842,-102.33092 -80.736182,-105.65214 -0.85322,-1.62453 -1.015708,-3.43737 -0.443097,-4.94348 1.049515,-2.76042 77.950099,-103.813729 80.531219,-105.824239 2.51274,-1.95724 3.24399,-1.72548 6.79521,2.1536 5.33137,5.82358 8.78876,11.394619 8.78876,14.161759 0,1.77928 -10.63657,16.54732 -33.13721,46.0084 -18.225471,23.8634 -33.310415,44.13366 -33.522119,45.045 -0.211696,0.91136 9.828803,14.98238 22.312215,31.26894 42.755404,55.78112 44.347114,57.96327 44.347114,60.79731 0,3.35877 -10.58449,17.84693 -12.99848,17.79245 -0.40188,-0.008 -1.27372,-0.3725 -1.93743,-0.8076 z m 139.01913,-0.96267 c -4.63603,-4.63605 -10.48104,-13.57119 -10.48104,-16.02218 0,-2.83105 1.4121,-4.76659 44.35601,-60.79731 12.78148,-16.67653 22.52271,-30.34786 22.29976,-31.29664 -0.21772,-0.92658 -15.30433,-21.19652 -33.52581,-45.04434 -22.50608,-29.45538 -33.12996,-44.20014 -33.12996,-45.9807 0,-2.76771 3.457,-8.338439 8.78877,-14.162419 3.55121,-3.87908 4.28246,-4.11084 6.79519,-2.1536 2.58113,2.01051 79.48171,103.063819 80.53122,105.824239 0.57321,1.50768 0.40959,3.31722 -0.44699,4.94348 -1.75241,3.32694 -79.1489,104.61136 -80.73409,105.65214 -1.77602,1.16607 -2.47554,1.01484 -4.45306,-0.96267 z"
     style="fill:#0c0c0d;fill-opacity:0.8;stroke-width:1.07679772" />
</svg>
