<?xml version="1.0" encoding="UTF-8" standalone="no"?>
<svg
   xmlns:dc="http://purl.org/dc/elements/1.1/"
   xmlns:cc="http://creativecommons.org/ns#"
   xmlns:rdf="http://www.w3.org/1999/02/22-rdf-syntax-ns#"
   xmlns:svg="http://www.w3.org/2000/svg"
   xmlns="http://www.w3.org/2000/svg"
   version="1.1"
   id="svg2"
   width="400"
   height="400"
   viewBox="0 0 400 400">
  <metadata
     id="metadata8">
    <rdf:RDF>
      <cc:Work
         rdf:about="">
        <dc:format>image/svg+xml</dc:format>
        <dc:type
           rdf:resource="http://purl.org/dc/dcmitype/StillImage" />
        <dc:title></dc:title>
      </cc:Work>
    </rdf:RDF>
  </metadata>
  <defs
     id="defs6" />
  <path
     style="fill:#f9f9fa;fill-opacity:1;stroke-width:1.25626409"
     d="m 166.08095,374.30521 c -6.25401,-2.13398 -12.62247,-5.71692 -13.68267,-7.69792 -0.91083,-1.70188 8.33169,-45.68855 35.70563,-169.92889 20.314,-92.19791 37.43582,-168.480573 38.0485,-169.516993 1.71416,-2.899723 5.42516,-2.883343 13.2884,0.05866 4.80344,1.797194 7.54796,3.623606 8.2602,5.496932 0.76983,2.024807 -9.21334,49.380106 -35.87676,170.181921 -20.31887,92.05704 -37.52997,168.47246 -38.2469,169.81205 -1.27241,2.37754 -3.69248,2.89222 -7.4964,1.59424 z M 116.30691,326.4471 C 114.4515,325.23072 24.149763,207.06102 22.114701,203.18627 c -0.995424,-1.89529 -1.184994,-4.01027 -0.516947,-5.76739 1.224434,-3.2205 90.941776,-121.116026 93.953086,-123.461628 2.93153,-2.283442 3.78465,-2.01306 7.92774,2.512538 6.21994,6.794173 10.25356,13.29374 10.25356,16.52206 0,2.07582 -12.40933,19.3052 -38.660079,53.67647 -21.263047,27.84064 -38.86215,51.48927 -39.109138,52.5525 -0.246978,1.06325 11.466938,17.47944 26.030919,36.48042 49.881298,65.07798 51.738298,67.62383 51.738298,70.93021 0,3.91856 -12.34857,20.82141 -15.1649,20.75785 -0.46885,-0.01 -1.486,-0.43458 -2.26033,-0.9422 z m 162.18899,-1.12312 c -5.40871,-5.40871 -12.22788,-15.83305 -12.22788,-18.69253 0,-3.3029 1.64745,-5.56103 51.74867,-70.93021 14.91173,-19.45595 26.27649,-35.40583 26.01639,-36.51273 -0.254,-1.08101 -17.85505,-24.72929 -39.11344,-52.55173 -26.2571,-34.36462 -38.65162,-51.56684 -38.65162,-53.64415 0,-3.22901 4.03316,-9.728191 10.25356,-16.52284 4.14307,-4.525598 4.99621,-4.79598 7.92772,-2.512538 3.01132,2.345602 92.72866,120.241128 93.95309,123.461628 0.66876,1.75896 0.47787,3.87009 -0.52149,5.76739 -2.04447,3.88143 -92.34038,122.04658 -94.18977,123.26083 -2.07203,1.36041 -2.88813,1.18398 -5.19523,-1.12312 z"
     id="path4487" />
</svg>
